<svg width="300" height="494" viewBox="0 0 300 494" fill="none" xmlns="http://www.w3.org/2000/svg">
<path d="M124.5 0.504791L13.5 90.005L12 176.005C10.497 177.163 9.53204 177.656 7.00004 177.505C3.17304 177.838 1.85004 179.831 3.70825e-05 184.505C-0.207963 197.511 3.54004 206.624 10.5 223.005C13.151 231.414 14.317 236.657 15.5 247.505C21.11 259.067 25.01 264.801 34 273.005C40.215 298.775 44.803 312.201 58 331.505C61.398 334.063 62.247 336.868 62.5 343.505L59.5 372.005L94.5 475.505L242.5 494.005V337.505C243.816 334.027 244.959 332.551 247.5 330.505C262.741 308.485 267.25 294.28 270 266.505C270.737 264.793 271.355 264.087 273 263.505C275.924 264.025 277.395 263.92 279.5 262.505C280.393 251.292 280.562 248.018 280.5 245.505C283.681 235.533 284.688 228.916 286.463 217.248L286.5 217.005C289.628 206.454 292.024 201.276 298 194.005C300.243 187.584 300.038 184.247 298.5 178.505C296.153 175.208 290.732 174.709 280.5 174.005V121.505L236 40.5048L124.5 0.504791Z" fill="#FEF0E7"/>
</svg>
