<svg width="260" height="83" viewBox="0 0 260 83" fill="none" xmlns="http://www.w3.org/2000/svg">
<path d="M35.5 72.505C26.561 60.261 23.53 52.48 20.5 37.505V34.505L23 31.505V34.505C27.5 57.505 32.685 68.505 46.5 76.005C55.974 79.286 63.191 79.905 80 78.505C93.172 75.814 97.317 70.235 102.5 57.505C108.915 43.759 108.537 33.906 108.5 15.505H150L149 26.505C148.997 31.813 149.25 34.892 150 40.505C155 62.505 163.612 72.25 173 76.005C183.662 78.895 190.155 79.139 202.5 77.505C213.488 74.867 218.921 71.859 226 61.005C229.617 51.145 230.812 45.425 232 35.005L235 36.005C233.564 43.173 232.111 50.932 229.5 60.005C223.875 69.999 219.387 74.27 208.5 79.005C193.972 82.448 186.019 81.95 172 79.005C163.76 74.576 156.74 65.005 155 62.505C153.947 60.992 153.49 60.004 153 58.005C150 56.505 147.126 54.32 145 51.005C143.495 48.597 141.457 45.453 141 42.005C141.173 40.087 143.5 39.005 143.5 37.505C143.5 32.005 143.385 25.206 140.5 24.505C135.451 23.703 131.383 23.484 122 23.505C116.722 23.647 114.367 24.243 114.5 29.005C115.034 30.834 115.135 33.79 115.5 36.005C115.865 38.219 118 40.005 117.5 43.005C117.083 45.505 111 53.505 106.5 57.505C101 68.005 97.6 72.459 86.5 80.005C80.5 81.505 76.88 82.271 67.5 82.505C52.127 81.686 44.789 79.852 35.5 72.505Z" fill="#A6A5A0"/>
<path d="M205 1.005C176.566 1.65 164.263 5.167 147 15.505C144.308 19.15 143.741 21.54 145.5 26.505C146.305 27.71 147.08 28.142 149 28.505C150.01 27.847 150.492 27.433 151 26.505C158.485 14.969 164.609 11.586 178 9.505C192.603 7.35 200.529 7.76 214.5 9.505C221.873 11.499 225.349 14.108 231 20.005C232.03 22.312 231.5 27.005 231.5 34.005C234.046 38.464 235.653 39.13 241 36.005C242.198 34.154 242.464 32.8 242.883 30.505C243.804 28.643 244.732 27.443 246 26.505C249.891 22.454 253.207 20.428 260 17.005V10.005L253 8.505C231.419 3.883 220.581 2.045 205 1.005Z" fill="#202221"/>
<path d="M45 1.00501C22.688 1.90501 13.862 3.81301 1.5 8.50501L0 24.005C2.841 24.925 4.303 25.508 6 27.005C8.645 28.04 10.952 32.228 12 35.526C12.819 36.857 13.512 37.842 14 38.005C18.5 38.505 20.661 37.375 23 35.005C25.096 18.162 32.224 14.064 48 9.50501C57.958 8.34701 63.542 8.97401 73.5 9.50501C90.911 13.057 99.675 15.642 106.5 25.505C108.257 26.148 109.243 26.073 111 25.505C111.805 22.381 112.234 20.618 111 16.505C99.965 8.41001 93.221 4.33801 76.5 1.00501C64.416 0.338012 57.539 0.283011 45 1.00501Z" fill="#202221"/>
</svg>
