<svg width="320" height="285" viewBox="0 0 320 285" fill="none" xmlns="http://www.w3.org/2000/svg">
<path d="M71.5 19.5048C92.939 8.2677 123 10.5048 144.5 23.0048C150.641 16.2043 155.865 10.971 161.5 8.29829C168.858 2.87529 175.875 -0.137347 185.5 0.00481299C191.834 0.17479 197.442 1.15392 204.5 4.35781C210.793 5.63316 216.666 6.58392 224 7.50481C232.275 10.915 236.99 13.6127 245.5 19.5048C276.954 40.3696 287.519 49.4841 297.5 62.5048C309.886 73.3958 313.425 90.207 319 122.505C318.804 134.942 319.625 125.007 318.028 159.505C317.978 166.167 317.712 173.506 317 181.005C312 195.005 305.5 209.505 304.5 215.005C303.5 220.505 303.955 219.412 302 229.505C298.941 240.884 296.938 252.025 293 278.005C291.027 279.023 290.327 278.911 289.5 278.005C289.329 255.076 290.718 235.368 287.5 226.505C286.901 209.378 286.5 206.005 280 183.505C275.996 183.072 273.842 182.689 270 182.005C252.303 178.077 244.218 178.585 231.5 182.005C226.018 182.777 223.218 182.69 218.5 182.005C213.696 180.617 211.529 179.271 208 176.505C203.614 174.152 200.832 173.203 195 172.505C182.243 166.84 176.904 160.57 172 141.505C172 108.005 170.539 102.941 169 93.5048C167.897 92.7862 167.227 92.7771 166 93.0048C162.769 96.0194 161.067 96.5496 158.068 97.4838L158 97.5048H151C142.5 97.0048 140.711 96.2847 133 93.5048C130.936 92.2613 124.92 91.7684 120 92.0048C114.64 92.2072 113.589 94.021 112 97.5048V107.505C113.615 120.243 116.5 128.005 120 140.005C123 159.505 110.366 175.283 89 185.005C84.5 185.505 69.738 185.427 66.5 185.005C55.885 183.62 53.161 182.472 49.5 183.005C44.992 183.406 43.29 186.702 40.5 193.505C37.256 208.556 36.597 219.85 36.5 244.005C35.923 256.078 36.895 264.904 40.5 282.005C39.182 284.943 38.176 285.269 36 284.005C31.266 266.128 28.44 255.948 22 236.505L21 214.505C13.5 192.505 8.493 179.664 0 155.505V118.005C2.999 101.522 4.981 92.3361 11.5 76.5048C17 59.0048 25.458 48.8365 38 39.5048C54.339 30.6168 58.148 29.1917 71.5 19.5048Z" fill="#202221"/>
</svg>
