<svg width="790" height="306" viewBox="0 0 790 306" fill="none" xmlns="http://www.w3.org/2000/svg">
<path d="M256 64.005C286.5 29.505 298.002 14.989 301.5 0.00500488C305.5 15.505 307.236 36.659 316 60.505C320.412 77.175 332.108 92.113 357.5 121.505L407 187.505L441.5 121.505C446.55 112.181 449.651 105.529 452.5 96.904C453.51 90.87 455.634 84.87 459 78.005C463.212 69.53 465.125 64.817 467.5 56.505C471.834 39.725 474.493 30.963 480 17.505C481.659 10.081 481.998 6.842 482 2.005C491.456 12.187 497.461 19.124 506 30.005C515.537 41.674 519.933 49.557 527.5 64.005C535.347 68.288 554.969 75.643 603 91.76C625.933 100.282 649.329 109.13 680 121.005C737 144.505 756.5 142.505 774.5 195.005C783.461 225.31 786.852 252.659 789.5 323.005H0C5.47405 286.638 7.11564 269.84 9 242.505C17.4023 201.472 21.9767 189.209 30 178.005C56.7606 152.305 78.5914 142.26 117 124.005C170.176 105.09 200.521 92.321 256 64.005Z" fill="#593E2A"/>
</svg>
